<svg id="Layer_1" data-name="Layer 1" xmlns="http://www.w3.org/2000/svg" xmlns:xlink="http://www.w3.org/1999/xlink" viewBox="0 0 308.58 388.94"><defs><style>.cls-1{fill:#fff;}.cls-2{fill:none;stroke:#000;stroke-miterlimit:10;}.cls-3{fill:#b7b7b7;}.cls-4{fill:url(#linear-gradient);}.cls-5{fill:#686868;}.cls-6{fill:url(#linear-gradient-2);}.cls-7{fill:#515151;}.cls-8{fill:#444;}.cls-9{fill:#424242;}.cls-10{fill:#999;}.cls-11{fill:#9b9b9b;}.cls-12{fill:url(#linear-gradient-3);}.cls-13{fill:url(#linear-gradient-4);}</style><linearGradient id="linear-gradient" x1="427.94" y1="445.35" x2="421.36" y2="463.42" gradientTransform="matrix(1, -0.05, 0.05, 1, -18.26, 15.5)" gradientUnits="userSpaceOnUse"><stop offset="0" stop-color="#fff"/><stop offset="1"/></linearGradient><linearGradient id="linear-gradient-2" x1="273.89" y1="446.54" x2="280.82" y2="466.43" gradientTransform="matrix(-0.93, 0.37, 0.37, 0.93, 602.87, -110.26)" xlink:href="#linear-gradient"/><linearGradient id="linear-gradient-3" x1="471.98" y1="394.17" x2="456.47" y2="421.02" gradientTransform="translate(-299.21 -128.54) rotate(-3.92)" gradientUnits="userSpaceOnUse"><stop offset="0" stop-color="#ccc"/><stop offset="1"/></linearGradient><linearGradient id="linear-gradient-4" x1="444.29" y1="400.8" x2="477.71" y2="398.5" gradientUnits="userSpaceOnUse"><stop offset="0" stop-color="#ccc"/><stop offset="0.95" stop-color="#4d4d4d"/></linearGradient></defs><title>R-sword-logo-fat-strokes</title><path class="cls-1" d="M360,235q-.25-15.25-.5-30.5l162,112q-30,10.59-60,21-72.3,25-145,49,1-21,2-42l35-8,101-33Z" transform="translate(-269.21 -153.69)"/><g id="inner"><path d="M360.21,235.5c-1.88,33.83-3.74,67.49-5.77,101.23l-.66-.51q.32-.41.63-.75l.33-.33c.06-.05.11-.12.18-.13s.15,0,.21,0l1.57-.54,3.13-1.1,6.26-2.22q6.27-2.2,12.59-4.21l25.33-8c8.43-2.69,16.9-5.27,25.35-7.91s16.94-5.17,25.4-7.77l-.13.88-24-16.12-11.78-8c-3.9-2.67-7.77-5.3-11.6-8.08s-7.67-5.69-11.49-8.38c-.95-.68-1.9-1.35-2.85-2s-1.89-1.3-2.83-1.91l-1.41-.93-.7-.47c-.25-.24-.33.59-.46,1s-.4,0-.62-.11l-.72-.62-1.42-1.26Zm-.43-.91c6.93,3.56,14.77,7.89,23,12.58l1.54.89.77.45c.27.21.48,0,.86,1a9,9,0,0,0,1,2.08l.78.61,1.56,1.21c1,.83,2.07,1.61,3.1,2.39s2.06,1.56,3.08,2.31c4.1,3,8.17,5.83,12.25,8.78s8.12,6,12.13,9.09l11.94,9.16,23.45,18.2.74.58-.88.3c-8.36,2.91-16.7,5.87-25.08,8.73s-16.74,5.77-25.14,8.58L379.69,330q-6.3,2.11-12.66,4l-6.36,1.91-3.18,1-1.58.49a.52.52,0,0,0-.19.11c-.06,0-.14,0-.22,0l-.45-.07a7,7,0,0,1-.95-.24l-.68-.21,0-.29C355.45,302.63,357.62,268.52,359.78,234.59Z" transform="translate(-269.21 -153.69)"/></g><path id="outer" class="cls-2" d="M360.94,204.91l-7,131.79-35.37,10.44q-1.15,19.64-2.32,39.25L523,317.08Z" transform="translate(-269.21 -153.69)"/><g id="back"><path class="cls-1" d="M331.44,154.81l-39.88,17.77L272,500.69l37.75-19.63Z" transform="translate(-269.21 -153.69)"/><path d="M331.15,155.22a19.29,19.29,0,0,1-2,1.74,13.62,13.62,0,0,1-1.33.78l-2.47,1.33c-1.62.85-3.17,1.62-4.71,2.32-3.08,1.42-6.17,2.77-9.31,4.11s-6.32,2.65-9.57,3.88-6.58,2.47-10,3.66l.29-.43c1,27.5.49,54.91-.44,82.29-.46,13.7-1.13,27.38-1.89,41s-1.55,27.35-2.37,41l-2.67,41-3,41c-2.16,27.31-4.43,54.62-7.3,81.89l-3.57-2.32,38.65-17.9-.27.41c.1-13.63.47-27.16,1-40.65.23-6.74.54-13.47.86-20.19l.47-10.08.56-10.08c.7-13.42,1.64-26.86,2.53-40.28l3-40.38,3.18-40.54,3.35-40.8Zm.58-.82-3.84,80.31-2.09,40.77-2.24,41-2.45,41.19c-.93,13.76-1.8,27.51-2.91,41.28l-.79,10.31-.89,10.31c-.58,6.87-1.18,13.73-1.86,20.59-1.29,13.7-2.74,27.36-4.44,40.91l0,.28-.23.14L273.1,502.86l-3.63,2.1.06-4.42c.39-27.41,1.39-54.79,2.5-82.17l1.92-41,2.23-41q1.2-20.51,2.52-41c.87-13.67,1.84-27.33,3-41,2.34-27.3,5.13-54.57,9.36-81.76l.05-.29.25-.14c3.23-1.77,6.55-3.52,9.95-5.22s6.85-3.4,10.36-5,7.07-3.23,10.63-4.77c1.78-.78,3.55-1.5,5.26-2.13.85-.31,1.69-.61,2.51-.89a5.4,5.4,0,0,1,1.17-.33C331.55,153.79,331.77,153.91,331.73,154.4Z" transform="translate(-269.21 -153.69)"/></g><g id="wrap"><path class="cls-1" d="M523,317.08l-162-112.17-7,131.79-35.37,10.44,12.87-192.33c71.75,47.53,235.74,158.57,246,166.56-10.1,3.7-80.47,29.91-105.55,39.31l-10.62-23.33Z" transform="translate(-269.21 -153.69)"/><path d="M522.5,317a169.26,169.26,0,0,1-24.83-14.07q-10.21-6.69-20.12-13.36c-13.26-8.9-26.15-17.87-38.89-27.14L400,234.2c-13-9.53-26.19-19.1-39.35-28.88l.79-.38h0a40.82,40.82,0,0,1,.64,8.29c-.06,2.75-.25,5.49-.36,8.24-.28,5.49-.49,11-.82,16.48-.61,11-1.29,21.95-2,32.93l-4.05,65.87,0,.67-.63.18h0a73.81,73.81,0,0,1-8.55,3.6c-2.9,1.05-5.83,2-8.79,2.79s-5.95,1.58-9,2.19a77.46,77.46,0,0,1-9.19,1.44l-.8.07.16-.58h0a3.63,3.63,0,0,1-2-3.16,14.54,14.54,0,0,1-.06-3c.08-1,.21-2,.3-3s.16-2,.22-3l.77-12,1.55-24,3.1-48.09L325,202.68c.54-8,1-16,1.68-24,.31-4,.58-8,.94-12,.17-2,.4-4,.77-6,.19-1,.4-2,.63-3a3.57,3.57,0,0,1,.52-1.47,16.58,16.58,0,0,0,1.29-1.42l.61-1.08.39.58a2.68,2.68,0,0,0,2.1,1,5,5,0,0,1,2.36.64l3.88,2.56,7.74,5.12,15.47,10.27,30.9,20.6,61.6,41.5,61.34,41.87,30.61,21,15.27,10.58c2.54,1.77,5.1,3.52,7.6,5.34q1.89,1.37,3.67,2.87a38.86,38.86,0,0,1,3.38,3.29h0l.07,0-.2.9a6.73,6.73,0,0,1-2.29,4,5.23,5.23,0,0,1-1.56.83l-1.66.61c-2.21.78-4.44,1.49-6.71,2.12-4.54,1.25-9.22,2.14-13.8,3.28a117.82,117.82,0,0,0-13.46,4.18l-13.27,4.71-13.25,4.78-13.21,4.87Q485.17,356,472,361.15h0l-.43.17-.2-.43-10.62-23.33h0l-.21-.47.51-.21c5-2,10-3.84,14.86-5.73s9.82-3.48,14.91-5,10.2-3,15.47-4.53Zm1,.14-14.71,5.52c-5,1.87-10.18,3.76-15.4,5.61s-10.56,3.63-16,5.15-10.72,3-16,4.4l.3-.68h0l10.62,23.33-.63-.27h0q13.26-4.74,26.43-9.72l13.18-5,13.14-5,13.13-5.12a118.1,118.1,0,0,0,12.92-5.65c4.22-2.13,8.34-4.52,12.59-6.55q3.2-1.52,6.48-2.79l1.65-.62a5.21,5.21,0,0,1,1.73-.4,6.6,6.6,0,0,1,4.31,1.55l-.13.86h0a39.38,39.38,0,0,1-4.13-2.17c-1.34-.78-2.66-1.58-3.94-2.46l-7.64-5.24-15.33-10.47-30.74-20.83-61.6-41.46-61.59-41.49-30.8-20.75-15.42-10.34-7.71-5.15-3.86-2.58a4.89,4.89,0,0,1-1.5-1.94,2.71,2.71,0,0,0-1.77-1.53l1-.5a16.44,16.44,0,0,0,1.08,1.58,3.63,3.63,0,0,1,.33,1.54c.1,1,.17,2,.22,3,.1,2,.07,4,0,6-.18,4-.45,8-.67,12-.43,8-1,16-1.54,24.05l-3.37,48.07-3.34,48.08-1.66,24-.84,12c-.07,1-.14,2-.18,3s-.05,2-.1,3a15.35,15.35,0,0,1-.46,3,3.62,3.62,0,0,1-2.45,2.85h0l-.64-.51a77.27,77.27,0,0,1,8.5-3.78c2.87-1.13,5.78-2.12,8.71-3s5.9-1.75,8.9-2.43a69.46,69.46,0,0,1,9.13-1.62h0l-.67.85L356,270.72c.48-11,1-22,1.53-33,.25-5.49.62-11,.93-16.47.17-2.74.28-5.49.51-8.23a40.19,40.19,0,0,1,1.52-8.18h0V204l.78.51c13.85,8.92,27.69,18,41.68,27.2s28.16,18.4,42.38,27.85,28.38,19.15,42.13,28.94c6.88,4.9,13.7,9.8,20.39,14.69S521.28,313.09,523.49,317.15Z" transform="translate(-269.21 -153.69)"/></g><g id="back_bottom" data-name="back bottom"><path class="cls-1" d="M272,501.69l16.23,32L326.08,515q-8.19-17-16.36-34Z" transform="translate(-269.21 -153.69)"/><path d="M272,501.69a26.52,26.52,0,0,1,4.81,3,4,4,0,0,1,.89,1l.61.92c.8,1.22,1.6,2.42,2.34,3.61,1.53,2.38,2.9,4.71,4.18,7.06a70.59,70.59,0,0,1,3.38,7.21,51.93,51.93,0,0,1,2.5,7.91L287,531.15l19.39-8.34,9.69-4.18c3.23-1.39,6.47-2.77,9.75-4.06l-.23.67-16.36-34,.69.22c-3,1.94-5.94,3.84-8.9,5.65s-5.86,3.63-8.82,5.34-5.88,3.42-8.81,5.08c-1.48.83-2.85,1.7-4.44,2.46-.81.38-1.66.74-2.61,1.08A9,9,0,0,1,272,501.69Zm0,0c-.88-.95-.34-1.52.36-2a19.26,19.26,0,0,1,2.11-1.5c1.54-.95,3.31-1.81,5-2.7q5-2.65,10-5.23c3.32-1.73,6.7-3.36,10-5s6.65-3.16,10-4.66l.48-.21.21.43,16.36,34,.2.41-.43.26c-3,1.81-6.08,3.55-9.16,5.26l-9.21,5.14L289.5,536.15l-1.83,1-1.89-2.26a65.42,65.42,0,0,1-5.61-8.07c-1.71-2.84-3.3-5.79-4.73-8.77s-2.76-6-3.94-8.92c-.61-1.48-1.16-2.94-1.71-4.38l-.41-1.08a1.4,1.4,0,0,1-.13-1C269.49,502.12,270.11,501.66,272,501.69Z" transform="translate(-269.21 -153.69)"/></g><g id="back_front" data-name="back front"><path class="cls-1" d="M326.08,515q2.85-53.32,5.71-106.64l-15.54-22-6.53,94.67Q317.9,498,326.08,515Z" transform="translate(-269.21 -153.69)"/><path d="M326,514.53l-.2-4.9c0-.82-.08-1.6-.15-2.49s-.16-1.81-.16-2.41l.11-6.57.28-12.91c.2-8.54.56-16.89,1-25.35s1-16.95,1.56-25.55c.29-4.31.64-8.61,1-13l.6-6.52.31-3.28a7.33,7.33,0,0,1,1-3.25l.1.32-15.55-22,.91-.25-6.53,94.67-.05-.26c2.38,2.27,3.57,4.94,5,7.47s2.59,5.1,3.73,7.73,2.22,5.33,3.32,7.93c.56,1.29,1.08,2.55,1.64,4.1S324.91,511,326,514.53Zm.2,1c-.29.76-1.2-.83-2-2s-1.65-2.85-2.46-4.39c-1.62-3-3.27-6-4.85-9s-3.1-6.15-4.45-9.26-2.84-6.12-3.18-9.51l0-.25,6.53-94.67.1-1.4.81,1.14,15.54,22,.09.32a7.54,7.54,0,0,1,.62,3.41l-.05,3.39-.11,6.82c-.13,4.54-.25,9.12-.44,13.7q-.56,13.75-1.3,27.77c-.51,9.32-1.11,18.74-1.85,28-.36,4.65-.76,9.22-1.15,13.76l-.6,6.75a2.1,2.1,0,0,1-.34.93,4.75,4.75,0,0,0-.33.84Z" transform="translate(-269.21 -153.69)"/></g><g id="sword_edge1" data-name="sword edge1"><polygon class="cls-3" points="238.57 379.94 190.67 339.12 168.09 258.48 192.63 250.78 238.57 379.94"/><path d="M508.06,534c-.7-.7-1.25-1.21-1.77-1.68-.26-.22-.53-.47-.59-.38s-.06.1,0,.31a6.57,6.57,0,0,0,.24.72l.71,2c.05.15.19.47.28.71l.61,1.29.72,1.53.59,1.32.14.33.05.17c0,.11.09.25.1.33s0,.11-.14,0l-.49-.31-1-.7a37.29,37.29,0,0,1-4.57-3.88c-.8-.81-1.62-1.67-2.41-2.52s-1.59-1.8-2.35-2.67c-1.52-1.8-2.94-3.52-4.23-5-.65-.76-1.26-1.43-1.87-2.08l-1.77-1.94c-1.16-1.24-2.25-2.34-3.34-3.3s-2.15-1.78-3.23-2.61a11.38,11.38,0,0,0-3.34-1.84,27.63,27.63,0,0,1-3.6-1.36,8.16,8.16,0,0,1-3.32-2.84c-.92-1.49-1.65-3.23-2.71-4.11A88.29,88.29,0,0,0,458,495l-.56-.36-.35-1.06c-2.19-6.63-4.12-13.34-5.9-20.09s-3.41-13.54-5.07-20.32L443.68,443l-2.35-10.21q-2.38-10.2-4.51-20.48l-.1-.47.43-.14,24.53-7.7.46-.14.16.45,23,64.9Zm-.57-.82L484.33,468.9l-23-64.26.62.31-24.53,7.7.33-.62q3.5,9.9,6.78,19.85l3.29,9.95,3.21,10c2.09,6.66,4.22,13.31,6.21,20s3.81,13.43,5.38,20.23l-.91-1.41A73.83,73.83,0,0,0,473,500.5c.93.82,2.2.77,3.28,1s1.85,1.22,2.66,2.26,1.56,2.45,2.39,3.74a17.36,17.36,0,0,0,2.65,3.27c.92.86,1.84,1.73,2.76,2.48a17.16,17.16,0,0,0,2.65,1.81c.42.24.82.43,1.22.61a6.41,6.41,0,0,0,1.12.47,3.44,3.44,0,0,0,1.76.12c.24,0,.45-.09.65-.12a1.87,1.87,0,0,1,.58,0,3.53,3.53,0,0,1,1.42,1.21l.46.58.25.33a2.09,2.09,0,0,1,.24.36l.67,1.14,2.06,3.5,1,1.61.66,1c.73,1.11,1.54,2.3,2.21,3.24.35.49.71,1,1,1.36l.76,1a5.84,5.84,0,0,0,.91.89A8.32,8.32,0,0,0,507.49,533.22Z" transform="translate(-269.21 -153.69)"/></g><g id="sword_edge2" data-name="sword edge2"><polygon class="cls-3" points="192.63 250.78 219.22 243.95 255.83 324.63 238.57 379.94 192.63 250.78"/><path d="M461.39,404.24c8.92-2.39,17.93-4.79,26.91-7.09l.4-.1.18.38,4.76,10,4.82,10,4.88,10,2.45,5,1.23,2.49a26.48,26.48,0,0,0,1.46,2.37c2,3.16,2.6,6.93,4.07,10.32s2.83,6.82,4.34,10.19l2.24,5.07c.74,1.69,1.61,3.32,2.4,5,1.61,3.32,3.1,6.7,4.57,10.09l.18.41-.13.42c-.71,2.31-1.38,4.62-2,6.95s-1.37,4.63-2,7c-1.23,4.67-2.42,9.36-4,13.92s-3.3,9.09-4.13,13.89c-.1,1.23,0,2.53,0,3.79a19.18,19.18,0,0,1-.45,3.66,41.08,41.08,0,0,1-1.88,7l-3,7.78L503.93,535a144,144,0,0,1-8.38-15.89c-2.52-5.46-4.79-11-6.9-16.67-1-2.81-2.09-5.63-3-8.47s-1.66-5.68-2.32-8.51c-1.32-5.67-2.39-11.26-3.84-16.8-.74-2.77-1.53-5.53-2.44-8.31L474.23,452c-.94-2.78-1.76-5.53-2.56-8.27s-1.59-5.47-2.35-8.18c-1.53-5.42-2.94-10.75-4.3-16S462.41,409.16,461.39,404.24Zm.88.47c2.82,5.84,5.38,11.45,7.86,17S475,432.61,477.32,438q1.73,4,3.39,8c1.12,2.64,2.21,5.27,3.19,7.87l2.88,7.8c1,2.61,2.13,5.23,3.31,7.84,2.38,5.23,5.14,10.4,7.65,15.49,1.25,2.55,2.39,5.09,3.42,7.64s1.9,5.1,2.78,7.67c1.72,5.13,3.27,10.31,4.58,15.62a132.87,132.87,0,0,1,3.11,16.4l-7.75.15a39.86,39.86,0,0,1,2.43-6.82,19.26,19.26,0,0,1,1.71-3.27c.72-1,1.56-2,2.17-3.11,2.05-4.42,3.2-9.12,4.5-13.77s3-9.19,4.62-13.73c.82-2.27,1.56-4.58,2.34-6.86s1.54-4.58,2.27-6.88l.05.83c-1.59-3.33-3.14-6.68-4.58-10.08-.74-1.69-1.39-3.42-2.18-5.09l-2.34-5c-1.54-3.36-3.17-6.67-4.81-10s-4-6.29-5.08-9.86a27.44,27.44,0,0,0-.82-2.67l-1.06-2.55L501,428.43l-4.27-10.22L492.37,408,488,397.84l.58.28C479.81,400.37,471.09,402.54,462.27,404.71Z" transform="translate(-269.21 -153.69)"/></g><g id="sword_base" data-name="sword base"><path class="cls-1" d="M488.43,397.64,437.3,412.17l-9.52-36.44-96,32.65-15.54-22,145-49Q474.83,367.5,488.43,397.64Z" transform="translate(-269.21 -153.69)"/><path d="M488.88,397.85c-17.09,5-34.28,9.93-51.44,14.8l-.49.14-.13-.5-9.52-36.43.65.35-47.78,17-23.85,8.61-11.9,4.34-11.89,4.4-.69.26-1.9-1.1a19.78,19.78,0,0,1-5.23-4.55,40.7,40.7,0,0,1-3.81-5.55,65.71,65.71,0,0,1-3.18-6,41.44,41.44,0,0,1-2.45-6.51l-.29-1,.89-.79a29.88,29.88,0,0,1,8.39-5.05c1.47-.63,3-1.13,4.49-1.66l4.51-1.58q4.51-1.59,9-3.12c3-1,6-2.07,9.06-3.06,12.1-4,24.29-7.82,36.45-11.68s24.32-7.71,36.53-11.42l18.32-5.52,9.18-2.74,4.58-1.37a30.55,30.55,0,0,1,4.66-1.17l.61.27c.87,0,1,.33,1.1.66l.42.95.86,1.92,1.7,3.83,3.4,7.66c2.25,5.11,4.55,10.22,6.72,15.33l6.58,15.26Zm-.91-.43-7.18-15.05-7-14.88c-2.36-4.94-4.59-9.88-6.87-14.81l-3.4-7.41-1.69-3.7-.85-1.86-.42-.92c-.16-.31-.34-.59.24-1.23l.62.27a32.21,32.21,0,0,1-4.41,1.9l-4.48,1.69-8.95,3.39-17.91,6.74c-12,4.46-24,8.74-36,13.09s-24,8.71-36.05,12.85q-4.51,1.56-9.06,3.07t-9.08,3l-4.55,1.49c-1.51.49-3,1-4.57,1.4a30,30,0,0,1-9.73,1.09l.6-1.85a43.2,43.2,0,0,1,5.32,4.49c1.62,1.6,3.14,3.27,4.58,5a41.36,41.36,0,0,1,4,5.44,20.27,20.27,0,0,1,2.54,6.45l-2.59-.84,12.11-3.76,12.09-3.82,24.15-7.72,48.21-15.67.51-.17.14.52L437.78,412l-.62-.35C454.08,406.87,471,402.15,488,397.42Z" transform="translate(-269.21 -153.69)"/></g><g id="knob2"><path class="cls-4" d="M432.61,449.63c.43,2.82.57,8.31-1.72,10.09-3.21,2.5-11-2.44-11.34-9.49-.27-5.17,3.45-10.89,7.16-10.35C430.24,440.4,432.1,446.36,432.61,449.63Z" transform="translate(-269.21 -153.69)"/><path class="cls-5" d="M433.87,449.43a15.06,15.06,0,0,1-.77,7,8.58,8.58,0,0,1-1.71,3,3.6,3.6,0,0,1-1.49.89,4.43,4.43,0,0,1-1.7.1,10.16,10.16,0,0,1-5.75-3.34,11.27,11.27,0,0,1-2.94-6,12.07,12.07,0,0,1,1.11-6.59,11.18,11.18,0,0,1,1.85-2.82,6.19,6.19,0,0,1,2.81-1.89,4.15,4.15,0,0,1,3.39.6,9.7,9.7,0,0,1,2.51,2.52A15.34,15.34,0,0,1,433.87,449.43Zm-3.43.53-.22-1.49c0-.51-.11-1-.18-1.54a28.36,28.36,0,0,0-.43-3.15,5.82,5.82,0,0,0-1.36-2.82,3,3,0,0,0-1.32-.83,3.33,3.33,0,0,0-1.57,0,5.8,5.8,0,0,0-2.75,1.72,10.89,10.89,0,0,0-1.82,2.77,11.79,11.79,0,0,0-1,6.48,11.17,11.17,0,0,0,2.81,5.91,9.55,9.55,0,0,0,5.65,3.25,3.18,3.18,0,0,0,2.94-1,3.11,3.11,0,0,0,.62-1.47,5.84,5.84,0,0,0,.05-1.62,22.24,22.24,0,0,0-.72-3.18A30.63,30.63,0,0,1,430.44,450Z" transform="translate(-269.21 -153.69)"/></g><g id="knob1"><path class="cls-6" d="M509,418.88c.56,2.79,2.28,7.85,4.95,8.29,3.76.62,9.16-7.89,7.13-14.49-1.49-4.83-6.79-8.12-10-5.71C508.1,409.27,508.4,415.65,509,418.88Z" transform="translate(-269.21 -153.69)"/><path class="cls-5" d="M510.3,418.63a34,34,0,0,0,1.52,6.26,3.44,3.44,0,0,0,2.21,2.16,4,4,0,0,0,3-1.11,12.83,12.83,0,0,0,3.63-5.54,13.18,13.18,0,0,0,.64-6.58,10,10,0,0,0-3.24-5.69,7.91,7.91,0,0,0-2.88-1.62,4.43,4.43,0,0,0-3.19.17,4.11,4.11,0,0,0-2,2.4,9.24,9.24,0,0,0-.44,3.18,20.39,20.39,0,0,0,.29,3.22c.06.54.14,1.07.23,1.59S510.19,418.12,510.3,418.63Zm-3.4.68a13.23,13.23,0,0,1,.71-7.28,17.61,17.61,0,0,1,1.61-3.29,6.41,6.41,0,0,1,2.6-2.36,4.77,4.77,0,0,1,3.39-.07,8.24,8.24,0,0,1,2.94,1.69,10.08,10.08,0,0,1,3.35,5.78,12.8,12.8,0,0,1-.71,6.68,13.87,13.87,0,0,1-3.65,5.64,4.27,4.27,0,0,1-3.15,1.2,6.41,6.41,0,0,1-3.12-1.78A11.68,11.68,0,0,1,506.9,419.31Z" transform="translate(-269.21 -153.69)"/></g><polygon class="cls-7" points="222.23 254.25 172.6 269.5 176.68 287.96 228.91 269.58 222.23 254.25"/><path class="cls-8" d="M491.23,408.4,442,423.66l.35-.58a23.66,23.66,0,0,1,1.86,4.43,42.69,42.69,0,0,1,1.17,4.58c.31,1.55.57,3.1.76,4.67a37.87,37.87,0,0,1,.29,4.78l-.66-.36a103.87,103.87,0,0,1,12.47-6.27c4.24-1.84,8.56-3.46,12.93-5s8.76-2.88,13.22-4.11a128.3,128.3,0,0,1,13.61-3l-.29.67a21.5,21.5,0,0,1-2.23-3.36,31.61,31.61,0,0,1-1.64-3.54c-.49-1.22-.93-2.48-1.35-3.84S491.61,410,491.23,408.4Zm.41-.91a31.94,31.94,0,0,1,2.13,3.33c.7,1.2,1.36,2.49,2,3.82a39.17,39.17,0,0,1,1.7,4.12,23.33,23.33,0,0,1,1.11,4.31l.07.46-.36.21a128.26,128.26,0,0,1-12.51,6.16c-4.24,1.83-8.54,3.51-12.88,5.08s-8.73,3-13.19,4.22a102.76,102.76,0,0,1-13.65,2.92l-.44.06-.21-.42a38.14,38.14,0,0,1-1.75-4.46c-.49-1.5-.91-3-1.28-4.56a42.64,42.64,0,0,1-.88-4.64,24,24,0,0,1-.17-4.81l0-.49.3-.09Z" transform="translate(-269.21 -153.69)"/><path class="cls-9" d="M431.19,442.54a11.22,11.22,0,0,0-.83,5.76,10.16,10.16,0,0,0,2.44,5.61l77.11-30.73a7.24,7.24,0,0,0-.19-4.28,5,5,0,0,0-2.31-2.76Z" transform="translate(-269.21 -153.69)"/><path class="cls-10" d="M431.42,442.78a1.31,1.31,0,0,0-.15.2l-.19.32a6,6,0,0,0-.32.68,6.8,6.8,0,0,0-.37,1.46,7.58,7.58,0,0,0,.16,3,21.73,21.73,0,0,1,1.13,2.71,9.07,9.07,0,0,0,1.55,2.37l-.64-.15,19.16-8c6.39-2.64,12.81-5.21,19.24-7.78l9.66-3.78,9.69-3.7,19.39-7.39-.28.32a6.49,6.49,0,0,0-.11-3.68,5.17,5.17,0,0,0-.87-1.6,4,4,0,0,0-1.34-1.1l.48,0c-6.27,2.39-12.49,4.79-18.88,6.83l-9.65,3-4.81,1.55-4.77,1.62-19.09,6.49C444.06,438.34,437.73,440.56,431.42,442.78Zm-.45-.49q9.57-3.26,19.11-6.58l19-6.7,4.76-1.69,4.72-1.75,9.4-3.64c6.31-2.36,12.79-4.35,19.23-6.36l.27-.08.2.12a5.66,5.66,0,0,1,2.63,3.46,7.93,7.93,0,0,1,.07,4.24l-.06.23-.23.09-19.16,8-9.58,4-9.62,3.89c-6.43,2.56-12.86,5.11-19.31,7.59L433,454.45l-.39.15-.26-.3a9.83,9.83,0,0,1-1.67-2.72,11.52,11.52,0,0,1-.51-1.5l-.09-.39c0-.13-.1-.25,0-.4a1.86,1.86,0,0,0,.13-.23,1.28,1.28,0,0,0,0-.19v-.39a23.53,23.53,0,0,1,.16-3c.07-.5.15-1,.23-1.5l.14-.76.06-.38A1.62,1.62,0,0,1,431,442.29Z" transform="translate(-269.21 -153.69)"/><polyline class="cls-1" points="172.6 190.5 185.56 233.1 212.34 245.17"/><path class="cls-11" d="M442.28,344a18.63,18.63,0,0,1,3.87,4.64,23.1,23.1,0,0,1,2.35,5.11,31.64,31.64,0,0,1,.88,5.55,19.59,19.59,0,0,0,.51,2.75,7,7,0,0,0,1.1,2.57c.61.79,1.61,1.45,2.22,2.24a3.49,3.49,0,0,1,.65,1.25c.11.46.19.92.28,1.37.37,1.83.66,3.68.89,5.55a50.61,50.61,0,0,1,.21,11.57l-.27-.31,2-4,1-1.85.69-1.25,1.38-2.5.17-.32.13-.21.25-.4.48-.79.24-.4.17-.24.34-.47.34-.47a2.89,2.89,0,0,1,.24-.25c.29-.28.43-.22.41.2a4.86,4.86,0,0,1-.12.82c-.06.32-.13.66-.21,1a19.79,19.79,0,0,0-.39,2c-.08.56,0,.73.14.82a1.49,1.49,0,0,0,.36.31c1,.76,2.78-.2,3.85.39a1.66,1.66,0,0,1,.39.26.58.58,0,0,1,.29.48,3.76,3.76,0,0,1,0,.57l-.08.74-.16,1.48c0,.36,0,.67.18.71s.2-.07.35-.23l.56-.68.56-.68c.17-.19.29-.28.38-.28s.23.24.34.35a14.11,14.11,0,0,1,2.14,4.2A18.26,18.26,0,0,0,476,393.3a47.18,47.18,0,0,0,5.76,5.1l-.41.91a47.21,47.21,0,0,0-7.64-.93,18.26,18.26,0,0,0-8.77,1.59,13.93,13.93,0,0,1-4.56,1.18,2,2,0,0,1-.49,0c-.06-.07-.07-.21,0-.47l.14-.87.14-.87c0-.23,0-.38-.06-.42s-.38.1-.66.34l-1,1.1-.5.55a3.26,3.26,0,0,1-.42.38.61.61,0,0,1-.55.11,3,3,0,0,1-.45-.12c-1.16-.42-1.61-2.39-2.84-2.63a1.85,1.85,0,0,0-.48-.07c-.15,0-.34,0-.7.45a18.31,18.31,0,0,0-1.22,1.58c-.22.31-.43.59-.63.85a5.06,5.06,0,0,1-.54.63c-.3.29-.44.23-.42-.17,0-.12,0-.22,0-.35l.12-.57.13-.56.07-.29.14-.44.27-.89.14-.44.07-.24.12-.34,1-2.69.48-1.34.75-2,1.62-4.16-.27-.31A50,50,0,0,1,448,377.2q-1.29-2.52-2.36-5.1c-.18-.43-.37-.86-.53-1.29a3.47,3.47,0,0,1-.16-1.41c.08-1,.53-2.1.6-3.09a7,7,0,0,0-.52-2.75A19.35,19.35,0,0,0,444,361a32.13,32.13,0,0,1-2.36-5.1,23.74,23.74,0,0,1-.89-5.55,18.7,18.7,0,0,1,.63-6Z" transform="translate(-269.21 -153.69)"/><polyline class="cls-1" points="172.49 191.02 186.34 232.17 173.01 257.14"/><path class="cls-11" d="M442.17,344.55a18.38,18.38,0,0,1,4,4.39,22.3,22.3,0,0,1,2.45,4.91,29,29,0,0,1,1,5.39,19.81,19.81,0,0,0,.58,2.67,6.48,6.48,0,0,0,1.15,2.47c.63.75,1.63,1.36,2.26,2.1a3.25,3.25,0,0,1,.68,1.21c.12.43.2.88.31,1.32.4,1.78.73,3.57,1,5.39a49.08,49.08,0,0,1,.47,11.3l0,.39h0l3.82,2.3,1.79,1.08,1.2.76,2.41,1.54.3.19.21.14.38.27.76.53.38.27.23.18.45.36.45.37.24.25c.26.31.19.44-.23.38a4.15,4.15,0,0,1-.8-.18c-.31-.08-.65-.17-1-.28a20,20,0,0,0-1.93-.53c-.55-.13-.73-.05-.83.06a2,2,0,0,0-.32.33c-.81.9.06,2.7-.58,3.7a3,3,0,0,1-.27.35.57.57,0,0,1-.5.24,3.19,3.19,0,0,1-.56,0l-.73-.14-1.46-.27c-.36,0-.67,0-.72.11s.06.2.22.37l.64.59.65.6c.18.18.26.3.26.39a1.86,1.86,0,0,1-.37.3A13.36,13.36,0,0,1,455.8,402,17.63,17.63,0,0,0,448,405.9a44.48,44.48,0,0,0-5.35,5.16l-.88-.47a43.68,43.68,0,0,0,1.31-7.32,17.54,17.54,0,0,0-1.13-8.62,13.53,13.53,0,0,1-.94-4.51,1.78,1.78,0,0,1,.05-.47.68.68,0,0,1,.47,0l.85.21.86.2c.22,0,.37,0,.42,0s-.08-.38-.31-.66l-1-1.06-.53-.53a2.77,2.77,0,0,1-.35-.44.56.56,0,0,1-.08-.54,1.69,1.69,0,0,1,.15-.43c.46-1.08,2.44-1.36,2.75-2.54a2.11,2.11,0,0,0,.09-.45c0-.15,0-.33-.41-.72s-1-.85-1.51-1.31c-.3-.24-.56-.46-.81-.68a4.09,4.09,0,0,1-.59-.57c-.28-.31-.21-.44.19-.39l.34,0,.56.17.55.17.28.09.43.17.87.33.43.17.23.1.33.14,2.62,1.14,1.3.58,1.9.88,4,1.9,0,.4a48.59,48.59,0,0,1-6.46-9.28q-1.33-2.42-2.46-4.9c-.18-.41-.38-.82-.56-1.24a3.47,3.47,0,0,1-.18-1.37c0-1,.48-2.07.53-3a6.63,6.63,0,0,0-.58-2.67A19.91,19.91,0,0,0,444.2,361a30.72,30.72,0,0,1-2.47-4.89,22.44,22.44,0,0,1-1-5.39,18.07,18.07,0,0,1,.5-5.89Z" transform="translate(-269.21 -153.69)"/><circle class="cls-12" cx="191.82" cy="246.33" r="15.5"/><path class="cls-13" d="M477.74,398.87c0,.14-.22.29-.38.43a.41.41,0,0,0-.22.4c0,.27-.05.53-.05.79-.06.53-.11,1.05-.14,1.57s-.14,1.05-.22,1.57-.26,1-.4,1.53a16.13,16.13,0,0,1-3.05,5.53,14.76,14.76,0,0,1-5,3.88,15.47,15.47,0,0,1-6.14,1.41,15.89,15.89,0,0,1-13-26.33l1.06-1.13,1.15-1c.42-.31.82-.64,1.25-.94s.87-.57,1.31-.86a12.31,12.31,0,0,1,6-2.37c.07,0,.16.44.24.72,0,.12.08.17.11.15h1.27l1.55.13c.51.07,1,.17,1.53.26s1,.28,1.5.41a16.84,16.84,0,0,1,5.51,2.93,16.18,16.18,0,0,1,4.07,4.85c.23.48.48.95.7,1.44s.39,1,.56,1.52.36,1,.54,1.54A7.43,7.43,0,0,1,477.74,398.87Zm-2.5.17a5,5,0,0,1-.09-1.4,9.82,9.82,0,0,0-.1-1.43c-.11-.46-.26-.91-.38-1.38s-.35-.89-.52-1.34a14.86,14.86,0,0,0-3.32-4.73,14.46,14.46,0,0,0-5-3.08c-.47-.14-.94-.3-1.42-.42s-1-.2-1.46-.27l-1.49-.11-.74,0h-.46s-.06,0-.09.15c0,.29-.07.75-.13.74a23.56,23.56,0,0,0-5.69.79c-.47.18-.91.4-1.35.62s-.83.54-1.25.81-.78.61-1.16.93L449.55,390a15.09,15.09,0,0,0,12.5,25,15.78,15.78,0,0,0,5.53-1.76,16.6,16.6,0,0,0,4.56-3.51,15,15,0,0,0,3-5c.14-.47.3-.93.43-1.4s.23-1,.31-1.43a11.8,11.8,0,0,0,.1-1.46c0-.24-.05-.49-.07-.73a.37.37,0,0,0-.24-.36C475.46,399.26,475.24,399.16,475.24,399Z" transform="translate(-269.21 -153.69)"/><path class="cls-1" d="M644,399" transform="translate(-269.21 -153.69)"/></svg>